<svg width="83" height="83" viewBox="0 0 83 83" fill="none" xmlns="http://www.w3.org/2000/svg">
<g clip-path="url(#clip0)">
<path d="M5.52178 73.7152V77.8565C5.52178 79.3813 6.75784 80.6174 8.2827 80.6174H74.5436C76.0684 80.6174 77.3045 79.3813 77.3045 77.8565V73.7152H5.52178Z" fill="#394D5C"/>
<path d="M5.52178 73.7152V77.8565C5.52178 79.3813 6.75784 80.6174 8.2827 80.6174H74.5436C76.0684 80.6174 77.3045 79.3813 77.3045 77.8565V73.7152H5.52178Z" fill="#394D5C"/>
<path d="M73.4726 73.7152V77.8565C73.4726 79.3813 72.2365 80.6174 70.7116 80.6174H74.5433C76.0682 80.6174 77.3042 79.3813 77.3042 77.8565V73.7152H73.4726Z" fill="#2C4252"/>
<path d="M75.9239 75.0957H6.90223C6.06213 75.0957 5.41686 74.3516 5.53568 73.52L6.1253 69.4725L7.31036 68.2011L6.48493 67.0034L11.3592 33.546L12.3801 32.2581L11.7196 31.0717L15.595 4.47355L16.5802 3.43065L15.9448 2.07326L16.3959 -1.02363C16.4929 -1.70357 17.0753 -2.20869 17.7623 -2.20869H20.833L22.0479 -1.37543L23.321 -2.20869H29.1276L30.247 -1.37543L31.6164 -2.20869H34.6976L35.9945 -1.37543L37.2306 -2.20869H45.6233L47.023 -1.54209L48.1451 -2.20869H51.2145L52.4761 -1.37543L53.706 -2.20869H59.4966L60.787 -1.54209L61.9951 -2.20869H62.5269L77.2902 73.52C77.4092 74.3516 76.7638 75.0957 75.9239 75.0957Z" fill="#83E85A"/>
<path d="M77.2904 73.52L76.7023 69.4834L75.5306 68.3035L76.3436 67.0208L71.4679 33.5543L70.3157 32.5094L71.1049 31.0636L67.2344 4.49755L66.2454 3.42848L66.877 2.0441L66.43 -1.02346C66.3329 -1.70357 65.7504 -2.20869 65.0635 -2.20869H61.9884L61.2616 -2.11987C61.5424 -2.11987 61.7759 -2.12437 61.9959 -1.97805C62.3139 -1.76657 62.5409 -1.4256 62.5983 -1.02363L73.4587 73.5199C73.5776 74.3514 72.9323 75.0956 72.0922 75.0956H75.924C76.7638 75.0957 77.4092 74.3516 77.2904 73.52Z" fill="#4AE048"/>
<path d="M41.4129 40.4542C36.1567 40.4542 31.8804 36.7972 31.8804 32.3023C31.8804 27.8072 36.1567 24.1502 41.4129 24.1502C46.6691 24.1502 50.9454 27.8072 50.9454 32.3023C50.9454 36.7972 46.6691 40.4542 41.4129 40.4542ZM41.4129 26.6499C37.535 26.6499 34.3802 29.1856 34.3802 32.3023C34.3802 35.419 37.535 37.9545 41.4129 37.9545C45.2907 37.9545 48.4456 35.4188 48.4456 32.3023C48.4456 29.1857 45.2909 26.6499 41.4129 26.6499Z" fill="#FAFAFA"/>
<path d="M52.4564 59.7797C51.766 59.7797 51.2065 59.2201 51.2065 58.5298C51.2065 54.6522 46.8132 51.4976 41.4129 51.4976C36.0127 51.4976 31.6192 54.6522 31.6192 58.5298C31.6192 59.2201 31.0596 59.7797 30.3693 59.7797C29.6791 59.7797 29.1194 59.2201 29.1194 58.5298C29.1194 53.2738 34.6343 48.9978 41.4129 48.9978C48.1914 48.9978 53.7063 53.2738 53.7063 58.5298C53.7063 59.2201 53.1467 59.7797 52.4564 59.7797Z" fill="#FAFAFA"/>
<path d="M41.4129 15.6064C36.9178 15.6064 33.2608 12.5687 33.2608 8.83484C33.2608 8.14456 33.8204 7.58495 34.5106 7.58495C35.2009 7.58495 35.7605 8.14456 35.7605 8.83484C35.7605 11.1903 38.2961 13.1066 41.4129 13.1066C44.5296 13.1066 47.0652 11.1903 47.0652 8.83484C47.0652 8.14456 47.6247 7.58495 48.3151 7.58495C49.0055 7.58495 49.565 8.14456 49.565 8.83484C49.565 12.5687 45.908 15.6064 41.4129 15.6064Z" fill="#FAFAFA"/>
<path d="M35.1586 4.56255L47.6675 4.56205C48.03 4.56205 48.3743 4.40473 48.6117 4.13108C48.8492 3.85727 48.956 3.49414 48.9049 3.13534L48.1424 -2.20869H45.6073L46.2263 2.06243L36.5996 2.06277L37.2326 -2.20869H34.6978L33.921 3.136C33.8699 3.49464 33.9769 3.85794 34.2142 4.13175C34.4517 4.40539 34.7963 4.56255 35.1586 4.56255Z" fill="#FAFAFA"/>
<path d="M28.7918 10.0846L54.0338 10.0836C54.3962 10.0836 54.7405 9.92641 54.978 9.6526C55.2155 9.37879 55.3223 9.01566 55.2712 8.65685L53.719 -2.20869H51.2078C51.2078 -2.1502 51.2105 -2.09137 51.219 -2.03188L52.5927 7.58395L30.2329 7.58478L31.6067 -2.03188C31.6152 -2.09137 31.6179 -2.1502 31.6179 -2.20869H29.1068L27.5544 8.65802C27.5033 9.01666 27.6103 9.37996 27.8476 9.65377C28.085 9.92741 28.4295 10.0846 28.7918 10.0846Z" fill="#FAFAFA"/>
<path d="M16.565 2.0631C16.3599 2.0631 16.1539 2.04843 15.9524 2.0196L15.5921 4.49322C15.593 4.49339 15.5936 4.49355 15.5945 4.49372C15.9141 4.53955 16.2406 4.56288 16.565 4.56288C20.2989 4.56288 23.3366 1.52515 23.3366 -2.20869H20.8368C20.8368 0.146766 18.9205 2.0631 16.565 2.0631Z" fill="#FAFAFA"/>
<path d="M59.1595 74.9194L57.5818 63.875C57.4938 63.2593 56.9665 62.802 56.3444 62.802L26.4815 62.8023C25.8596 62.8023 25.3321 63.2598 25.2441 63.8755L23.6664 74.9189C23.6579 74.9784 23.6553 75.0372 23.6553 75.0957H26.1664L27.5654 65.3021L55.2603 65.3016L56.6594 75.0956H59.1707C59.1705 75.0374 59.1678 74.9787 59.1595 74.9194Z" fill="#FAFAFA"/>
<path d="M64.7372 74.9189L62.3707 58.3532C62.2827 57.7374 61.7554 57.2801 61.1333 57.2801L21.6923 57.2806C21.0703 57.2806 20.5429 57.7381 20.4549 58.3537L18.0884 74.9189C18.0799 74.9784 18.0772 75.0372 18.0772 75.0955H20.5884L22.7762 59.7802L60.0491 59.7797L62.2371 75.0955H64.7483C64.7483 75.0372 64.7457 74.9784 64.7372 74.9189Z" fill="#FAFAFA"/>
<path d="M66.2607 4.56288C66.5852 4.56288 66.9116 4.53955 67.2313 4.49372C67.2321 4.49355 67.2329 4.49339 67.2338 4.49322L66.8735 2.0196C66.672 2.04843 66.466 2.0631 66.2607 2.0631C63.9052 2.0631 61.9889 0.146766 61.9889 -2.20869H59.4891C59.4891 1.52515 62.5269 4.56288 66.2607 4.56288Z" fill="#FAFAFA"/>
<path d="M13.6731 75.0951C13.6731 70.9567 10.5859 67.4845 6.48543 67.0009L6.1253 69.4729C6.13863 69.4749 6.15146 69.4779 6.16496 69.4794C9.02021 69.802 11.1734 72.2163 11.1734 75.0951V75.0956H13.6731C13.6731 75.0956 13.6731 75.0952 13.6731 75.0951Z" fill="#FAFAFA"/>
<path d="M66.2607 2.0631C64.8303 2.0631 63.5628 1.35566 62.7872 0.273087L63.3136 3.88694C64.205 4.31973 65.205 4.56288 66.2607 4.56288C66.5852 4.56288 66.9116 4.53954 67.2313 4.49372L67.2338 4.49322L67.0045 2.91935L66.8733 2.0196C66.6718 2.04843 66.4658 2.0631 66.2607 2.0631Z" fill="#D0E2ED"/>
<path d="M11.3585 33.5522H71.4674L71.1031 31.0524H11.7228L11.3585 33.5522Z" fill="#FAFAFA"/>
<path d="M76.7008 69.4729L76.3406 67.0009C72.24 67.4845 69.1528 70.9567 69.1528 75.0951V75.0956H71.6524C71.6524 75.0954 71.6524 75.0952 71.6524 75.0951C71.6524 72.2163 73.8057 69.802 76.6609 69.4794C76.6744 69.4779 76.6874 69.4749 76.7008 69.4729Z" fill="#FAFAFA"/>
<path d="M71.1031 33.2609H67.2713L67.6356 35.7607H71.4674L71.3261 34.7905L71.1031 33.2609Z" fill="#D0E2ED"/>
<path d="M76.7008 71.6816L76.4475 69.9432L76.3406 69.2094C74.9956 69.3681 73.7609 69.8499 72.707 70.5697L73.1321 73.4879C74.024 72.5115 75.2572 71.8465 76.6609 71.6881C76.6744 71.6866 76.6874 71.6836 76.7008 71.6816Z" fill="#D0E2ED"/>
</g>
<defs>
<clipPath id="clip0">
<rect width="82.8261" height="82.8261" fill="white"/>
</clipPath>
</defs>
</svg>
