<svg width="29" height="26" viewBox="0 0 29 26" fill="none" xmlns="http://www.w3.org/2000/svg">
<g clip-path="url(#clip0)">
<path d="M28.2166 12.017L17.2787 1.91199C15.6922 0.446939 13.1119 0.446939 11.5255 1.91199L0.587597 12.017C0.244035 12.3344 0.244035 12.8489 0.587597 13.1662C0.930609 13.4836 1.488 13.4836 1.83102 13.1662L2.52859 12.5218V22.8508C2.52859 24.1409 3.66069 25.1868 5.0572 25.1868H9.4548C9.7584 25.1868 10.0045 24.9594 10.0045 24.679V17.1633C10.0045 15.761 11.2351 14.6242 12.753 14.6242H16.0512C17.5691 14.6242 18.7997 15.761 18.7997 17.1633V24.679C18.7997 24.9594 19.0458 25.1868 19.3494 25.1868H23.747C25.1435 25.1868 26.2756 24.1409 26.2756 22.8508V12.5218L26.9732 13.1662C27.1447 13.3247 27.37 13.4044 27.5949 13.4044C27.8197 13.4044 28.0451 13.3247 28.2166 13.1662C28.5601 12.8489 28.5601 12.3344 28.2166 12.017V12.017Z" fill="#0C77EB"/>
</g>
<defs>
<clipPath id="clip0">
<rect width="28.1443" height="26" fill="white" transform="translate(0.329895)"/>
</clipPath>
</defs>
</svg>
