<svg width="50" height="50" viewBox="0 0 50 50" fill="none" xmlns="http://www.w3.org/2000/svg">
<g clip-path="url(#clip0)">
<path d="M3.33408 45.8333V48.3333C3.33408 49.2538 4.08025 50 5.00078 50H45.0008C45.9213 50 46.6675 49.2538 46.6675 48.3333V45.8333H3.33408Z" fill="#394D5C"/>
<path d="M3.33408 45.8333V48.3333C3.33408 49.2538 4.08025 50 5.00078 50H45.0008C45.9213 50 46.6675 49.2538 46.6675 48.3333V45.8333H3.33408Z" fill="#394D5C"/>
<path d="M44.3535 45.8333V48.3333C44.3535 49.2538 43.6073 50 42.6868 50H44.9999C45.9204 50 46.6666 49.2538 46.6666 48.3333V45.8333H44.3535Z" fill="#2C4252"/>
<path d="M45.8333 46.6667H4.16669C3.65955 46.6667 3.27001 46.2175 3.34174 45.7155L3.69768 43.2721L4.41307 42.5046L3.91478 41.7816L6.85723 21.5842L7.47353 20.8067L7.07484 20.0905L9.41428 4.0339L10.009 3.40433L9.62544 2.58491L9.89778 0.715392C9.95633 0.30493 10.3079 0 10.7226 0H12.5763L13.3097 0.503018L14.0783 0H17.5836L18.2593 0.503018L19.086 0H20.9461L21.729 0.503018L22.4751 0H27.5416L28.3866 0.402414L29.064 0H30.9169L31.6785 0.503018L32.4209 0H35.9166L36.6956 0.402414L37.4248 0H37.7459L46.6581 45.7155C46.73 46.2175 46.3403 46.6667 45.8333 46.6667Z" fill="#D0E2ED"/>
<path d="M46.6582 45.7155L46.3032 43.2787L45.5959 42.5664L46.0867 41.7921L43.1433 21.5892L42.4478 20.9585L42.9242 20.0856L40.5877 4.04839L39.9906 3.40302L40.3719 2.5673L40.1021 0.715493C40.0435 0.30493 39.6918 0 39.2772 0H37.4208L36.9821 0.0536217C37.1516 0.0536217 37.2925 0.0509054 37.4253 0.139235C37.6173 0.266901 37.7543 0.472736 37.789 0.715392L44.3452 45.7154C44.4169 46.2174 44.0274 46.6666 43.5202 46.6666H45.8334C46.3403 46.6667 46.73 46.2175 46.6582 45.7155Z" fill="#D0E2ED"/>
<path d="M24.9999 25.7545C21.8268 25.7545 19.2454 23.5469 19.2454 20.8334C19.2454 18.1198 21.8268 15.9122 24.9999 15.9122C28.1729 15.9122 30.7544 18.1198 30.7544 20.8334C30.7544 23.5469 28.1729 25.7545 24.9999 25.7545ZM24.9999 17.4212C22.6589 17.4212 20.7544 18.9519 20.7544 20.8334C20.7544 22.7149 22.6589 24.2455 24.9999 24.2455C27.3408 24.2455 29.2454 22.7148 29.2454 20.8334C29.2454 18.952 27.3409 17.4212 24.9999 17.4212Z" fill="#FAFAFA"/>
<path d="M31.6666 37.4208C31.2498 37.4208 30.9121 37.083 30.9121 36.6663C30.9121 34.3255 28.2599 32.4211 24.9999 32.4211C21.7399 32.4211 19.0877 34.3255 19.0877 36.6663C19.0877 37.083 18.7499 37.4208 18.3332 37.4208C17.9165 37.4208 17.5787 37.083 17.5787 36.6663C17.5787 33.4934 20.9078 30.9121 24.9999 30.9121C29.0919 30.9121 32.4211 33.4934 32.4211 36.6663C32.4211 37.083 32.0833 37.4208 31.6666 37.4208Z" fill="#FAFAFA"/>
<path d="M24.9999 10.7545C22.2863 10.7545 20.0787 8.92072 20.0787 6.6667C20.0787 6.25 20.4165 5.91217 20.8332 5.91217C21.2499 5.91217 21.5877 6.25 21.5877 6.6667C21.5877 8.08863 23.1184 9.24547 24.9999 9.24547C26.8814 9.24547 28.4121 8.08863 28.4121 6.6667C28.4121 6.25 28.7498 5.91217 29.1666 5.91217C29.5834 5.91217 29.9211 6.25 29.9211 6.6667C29.9211 8.92072 27.7135 10.7545 24.9999 10.7545Z" fill="#FAFAFA"/>
<path d="M21.2243 4.08763L28.7756 4.08732C28.9945 4.08732 29.2023 3.99235 29.3457 3.82716C29.489 3.66187 29.5535 3.44266 29.5226 3.22606L29.0624 0H27.532L27.9056 2.57837L22.0943 2.57857L22.4764 0H20.9462L20.4773 3.22646C20.4464 3.44296 20.511 3.66227 20.6542 3.82757C20.7976 3.99276 21.0056 4.08763 21.2243 4.08763Z" fill="#FAFAFA"/>
<path d="M17.3809 7.42113L32.6188 7.42052C32.8376 7.42052 33.0455 7.32565 33.1888 7.16036C33.3322 6.99507 33.3967 6.77585 33.3658 6.55926L32.4288 0H30.9129C30.9129 0.0353119 30.9145 0.0708249 30.9196 0.10674L31.7489 5.91157L18.2508 5.91207L19.0802 0.10674C19.0853 0.0708249 19.0869 0.0353119 19.0869 0H17.571L16.6339 6.55996C16.603 6.77646 16.6676 6.99577 16.8109 7.16107C16.9542 7.32626 17.1622 7.42113 17.3809 7.42113Z" fill="#FAFAFA"/>
<path d="M9.99989 2.57877C9.87605 2.57877 9.7517 2.56992 9.63007 2.55252L9.41257 4.04577C9.41307 4.04588 9.41347 4.04598 9.41398 4.04608C9.60693 4.07374 9.80402 4.08783 9.99989 4.08783C12.2539 4.08783 14.0877 2.25402 14.0877 0H12.5787C12.5787 1.42193 11.4218 2.57877 9.99989 2.57877Z" fill="#FAFAFA"/>
<path d="M35.7131 46.5603L34.7607 39.8931C34.7075 39.5213 34.3892 39.2453 34.0137 39.2453L15.9862 39.2455C15.6108 39.2455 15.2923 39.5216 15.2392 39.8934L14.2868 46.56C14.2817 46.5959 14.2801 46.6314 14.2801 46.6667H15.796L16.6405 40.7545L33.3592 40.7542L34.2038 46.6666H35.7198C35.7197 46.6315 35.7181 46.5961 35.7131 46.5603Z" fill="#FAFAFA"/>
<path d="M39.0802 46.56L37.6516 36.5597C37.5985 36.1879 37.2802 35.9119 36.9046 35.9119L13.0951 35.9122C12.7196 35.9122 12.4012 36.1883 12.3481 36.56L10.9195 46.56C10.9144 46.5959 10.9128 46.6314 10.9128 46.6666H12.4287L13.7494 37.4211L36.2501 37.4208L37.5709 46.6666H39.0869C39.0869 46.6314 39.0853 46.5959 39.0802 46.56Z" fill="#FAFAFA"/>
<path d="M39.9999 4.08783C40.1958 4.08783 40.3928 4.07374 40.5858 4.04608C40.5863 4.04598 40.5868 4.04588 40.5873 4.04577L40.3698 2.55252C40.2482 2.56992 40.1238 2.57877 39.9999 2.57877C38.578 2.57877 37.4211 1.42193 37.4211 0H35.9121C35.9121 2.25402 37.7459 4.08783 39.9999 4.08783Z" fill="#FAFAFA"/>
<path d="M8.25411 46.6663C8.25411 44.1681 6.39043 42.072 3.91508 41.7801L3.69768 43.2723C3.70573 43.2736 3.71347 43.2754 3.72162 43.2763C5.44526 43.471 6.74506 44.9285 6.74506 46.6663V46.6666H8.25411C8.25411 46.6666 8.25411 46.6664 8.25411 46.6663Z" fill="#FAFAFA"/>
<path d="M37.4211 0H36.964C37.1337 0 37.2923 0.0517103 37.4251 0.140141C37.4225 0.093662 37.4211 0.0469819 37.4211 0Z" fill="#D0E2ED"/>
<path d="M39.9999 2.57878C39.1364 2.57878 38.3712 2.15172 37.903 1.4982L38.2208 3.67979C38.7589 3.94106 39.3626 4.08784 39.9999 4.08784C40.1958 4.08784 40.3928 4.07375 40.5858 4.04609L40.5873 4.04578L40.4489 3.09568L40.3697 2.55253C40.2481 2.56993 40.1237 2.57878 39.9999 2.57878Z" fill="#D0E2ED"/>
<path d="M6.85684 21.5879H43.1431L42.9231 20.0789H7.07676L6.85684 21.5879Z" fill="#FAFAFA"/>
<path d="M46.3023 43.2723L46.0849 41.7801C43.6094 42.072 41.7458 44.1681 41.7458 46.6663V46.6666H43.2547C43.2547 46.6665 43.2547 46.6664 43.2547 46.6663C43.2547 44.9285 44.5546 43.471 46.2782 43.2763C46.2864 43.2754 46.2942 43.2736 46.3023 43.2723Z" fill="#FAFAFA"/>
<path d="M42.9231 20.0788H40.61L40.8299 21.5878H43.1431L43.0578 21.0021L42.9231 20.0788Z" fill="#D0E2ED"/>
<path d="M46.3023 43.2723L46.1494 42.2229L46.0849 41.78C45.2729 41.8757 44.5276 42.1666 43.8913 42.6011L44.148 44.3628C44.6864 43.7733 45.4309 43.3719 46.2783 43.2762C46.2864 43.2753 46.2943 43.2735 46.3023 43.2723Z" fill="#D0E2ED"/>
</g>
<defs>
<clipPath id="clip0">
<rect width="50" height="50" fill="white"/>
</clipPath>
</defs>
</svg>
