<svg width="25" height="25" viewBox="0 0 25 25" fill="none" xmlns="http://www.w3.org/2000/svg">
<g clip-path="url(#clip0)">
<path d="M24.4687 24.3646C24.4995 24.5186 24.4615 24.6784 24.3646 24.8021C24.2656 24.9255 24.1166 24.9981 23.9583 25H1.04169C0.883492 24.9981 0.734469 24.9255 0.635445 24.8021C0.538571 24.6784 0.500534 24.5186 0.531295 24.3646L3.33339 11.4584L3.56254 10.4167L5.73959 0.406272C5.7912 0.166527 6.00482 -0.00349261 6.24999 2.30076e-05H18.75C18.9952 -0.00349261 19.2088 0.166527 19.2604 0.406272L21.4375 10.4167L21.6666 11.4583L24.4687 24.3646Z" fill="#CFD4D9"/>
<path d="M21.4375 10.4167H17.0729C16.1771 6.98958 14.1042 6.25003 12.5 6.25003C10.2084 6.25003 8.60418 7.73963 7.92713 10.4167H3.56254L3.33339 11.4583H7.77088C7.76492 12.315 8.06399 13.1458 8.61463 13.8021C9.5802 14.9495 11.0004 15.6158 12.5 15.625C14.0162 15.6068 15.4496 14.93 16.4271 13.7708C16.9669 13.1226 17.2553 12.3017 17.2396 11.4583H21.6667L21.4375 10.4167ZM12.5 7.29168C14.2396 7.29168 15.375 8.32292 15.9896 10.4167H9.00003C9.58333 8.35417 10.75 7.29168 12.5 7.29168ZM15.6146 13.1146C14.1993 14.8333 11.6588 15.0793 9.94006 13.664C9.75017 13.5076 9.57498 13.3342 9.41668 13.1459C9.0242 12.672 8.81365 12.0736 8.82293 11.4584H16.1875C16.2067 12.0621 16.0027 12.6518 15.6146 13.1146Z" fill="#FAFAFA"/>
<path d="M18.3438 25H17.2813L16.2396 19.7916H8.76043L7.71878 25H6.65628L7.82293 19.1666C7.87244 18.9241 8.08582 18.75 8.33333 18.75H16.6667C16.9142 18.75 17.1276 18.9241 17.1771 19.1666L18.3438 25Z" fill="#FAFAFA"/>
<path d="M15.6146 3.56286C15.6456 3.71208 15.6029 3.86716 15.5 3.97951C15.4054 4.10148 15.2584 4.17116 15.1041 4.16701H9.89583C9.74153 4.17116 9.59451 4.10148 9.49998 3.97951C9.397 3.86711 9.35438 3.71208 9.38538 3.56286L9.97913 0.000366211H11.0312L10.5104 3.12536H14.4895L13.9687 0.000366211H15.0208L15.6146 3.56286Z" fill="#FAFAFA"/>
</g>
<defs>
<clipPath id="clip0">
<rect width="25" height="25" fill="white"/>
</clipPath>
</defs>
</svg>
