<svg width="89" height="89" viewBox="0 0 89 89" fill="none" xmlns="http://www.w3.org/2000/svg">
<g clip-path="url(#clip0)">
<path d="M52.1678 55.0052V45.4895L37.4777 45.4893V55.0052C37.4777 55.4872 37.1537 55.9091 36.6878 56.0332L30.575 57.6632V73.9828H44.8226H59.0705V57.6632L52.9577 56.0332C52.4918 55.9091 52.1678 55.4872 52.1678 55.0052Z" fill="#F8C09C"/>
<path d="M37.4775 52.0554C39.6388 53.3062 42.146 54.0255 44.8226 54.0255C47.4993 54.0255 50.0065 53.306 52.1678 52.0554V45.4895L37.4777 45.4893V52.0554H37.4775Z" fill="#F8AA8B"/>
<path d="M62.4508 20.5663C64.0736 20.5663 65.3889 21.8817 65.3889 23.5044V29.3804C65.3889 31.003 64.0736 32.3185 62.4508 32.3185H27.1944C25.5717 32.3185 24.2563 31.0031 24.2563 29.3804V23.5044C24.2563 21.8819 25.5717 20.5663 27.1944 20.5663H62.4508Z" fill="#F8AA8B"/>
<path d="M59.5127 14.6901V35.2564C59.5127 43.3696 52.9357 49.9465 44.8226 49.9465C36.7096 49.9465 30.1325 43.3695 30.1325 35.2564V14.6901H59.5127Z" fill="#F8C09C"/>
<path d="M38.9465 30.7105C38.2117 30.7105 37.6164 30.1152 37.6164 29.3804V27.9115C37.6164 27.1767 38.2117 26.5814 38.9465 26.5814C39.6812 26.5814 40.2766 27.1767 40.2766 27.9115V29.3804C40.2766 30.1152 39.6812 30.7105 38.9465 30.7105Z" fill="#394D5C"/>
<path d="M50.6988 30.7105C49.9641 30.7105 49.3687 30.1152 49.3687 29.3804V27.9115C49.3687 27.1767 49.9641 26.5814 50.6988 26.5814C51.4336 26.5814 52.0289 27.1767 52.0289 27.9115V29.3804C52.0289 30.1152 51.4334 30.7105 50.6988 30.7105Z" fill="#394D5C"/>
<path d="M47.7606 40.9936H41.8846C41.1498 40.9936 40.5545 40.3982 40.5545 39.6635C40.5545 38.9287 41.1498 38.3334 41.8846 38.3334H47.7606C48.4953 38.3334 49.0907 38.9287 49.0907 39.6635C49.0907 40.3982 48.4953 40.9936 47.7606 40.9936Z" fill="#F8AA8B"/>
<path d="M59.0692 58.9045L62.5597 58.5939L75.717 62.1025C78.2893 62.7885 80.079 65.1181 80.079 67.7803V86.6722C80.079 87.4836 79.4213 88.1412 78.6101 88.1412H11.0352C10.2238 88.1412 9.56624 87.4834 9.56624 86.6722V67.7801C9.56624 65.118 11.356 62.7883 13.9282 62.1024L27.2384 58.5529L30.5752 60.3234V66.7859L44.8225 71.9818L59.0703 66.7859L59.0692 58.9045Z" fill="#118DF0"/>
<path d="M53.6367 5.87602H53.2319C52.6441 5.87602 52.1678 5.39967 52.1678 4.81195V4.40707C52.1678 1.97317 50.1946 1.52588e-05 47.7607 1.52588e-05H41.8847C39.4508 1.52588e-05 37.4777 1.97317 37.4777 4.40707V4.81195C37.4777 5.39967 37.0013 5.87602 36.4136 5.87602H36.0085C32.7633 5.87602 30.1325 8.50678 30.1325 11.752V20.5661H34.5396C35.3509 20.5661 36.0085 19.9084 36.0085 19.0972C36.0085 18.2858 36.6663 17.6282 37.4775 17.6282H52.1676C52.979 17.6282 53.6366 18.2858 53.6366 19.0972C53.6366 19.9085 54.2942 20.5661 55.1055 20.5661H59.5126V11.752C59.5127 8.50678 56.882 5.87602 53.6367 5.87602Z" fill="#887575"/>
<path d="M62.4129 58.5546C61.8131 67.7473 54.167 75.0178 44.8226 75.0178C35.4781 75.0178 27.8318 67.7471 27.2324 58.5542L33.0706 56.9944V57.3896C33.0706 63.8801 38.3323 69.1418 44.8228 69.1418C51.3133 69.1418 56.575 63.8801 56.575 57.3896V56.9944L62.4129 58.5546Z" fill="#D0E2ED"/>
<path d="M70.2009 82.265H63.5149C62.9272 82.265 62.4508 81.7887 62.4508 81.2009V74.515C62.4508 73.9273 62.9272 73.4509 63.5149 73.4509H70.2009C70.7886 73.4509 71.2649 73.9273 71.2649 74.515V81.2009C71.2649 81.7885 70.7886 82.265 70.2009 82.265Z" fill="#83E85A"/>
<path d="M15.4423 80.5591C14.7075 80.5591 14.1122 79.9638 14.1122 79.229V77.8579C14.1122 77.1232 14.7075 76.5279 15.4423 76.5279C16.177 76.5279 16.7724 77.1232 16.7724 77.8579V79.229C16.7724 79.9638 16.177 80.5591 15.4423 80.5591Z" fill="#FDBE40"/>
<path d="M21.3184 80.5591C20.5837 80.5591 19.9883 79.9638 19.9883 79.229V77.8579C19.9883 77.1232 20.5837 76.5279 21.3184 76.5279C22.0532 76.5279 22.6485 77.1232 22.6485 77.8579V79.229C22.6485 79.9638 22.053 80.5591 21.3184 80.5591Z" fill="#FDBE40"/>
<path d="M27.1944 80.5591C26.4597 80.5591 25.8643 79.9638 25.8643 79.229V77.8579C25.8643 77.1232 26.4597 76.5279 27.1944 76.5279C27.9292 76.5279 28.5245 77.1232 28.5245 77.8579V79.229C28.5245 79.9638 27.929 80.5591 27.1944 80.5591Z" fill="#FDBE40"/>
<path d="M53.6367 5.87601H53.2317C52.7019 5.87601 52.2637 5.48833 52.1823 4.98148V10.2831C52.1823 11.0178 52.7777 11.6132 53.5124 11.6132C54.2472 11.6132 54.8425 11.0178 54.8425 10.2831V6.00051C54.4534 5.91928 54.0501 5.87601 53.6367 5.87601Z" fill="#806666"/>
<path d="M37.474 10.2831V4.88483C37.4364 5.43832 36.9767 5.87601 36.4136 5.87601H36.0085C35.5991 5.87601 35.1995 5.91805 34.8138 5.99785V10.2831C34.8138 11.0178 35.4091 11.6132 36.1439 11.6132C36.8786 11.6132 37.474 11.0178 37.474 10.2831Z" fill="#806666"/>
<path d="M75.7171 62.1025L71.91 61.0872C74.3354 61.8601 76.0001 64.1175 76.0001 66.6848V86.6721C76.0001 87.4834 75.3425 88.141 74.5311 88.141H78.6101C79.4215 88.141 80.0791 87.4833 80.0791 86.6721V67.7801C80.0791 65.1179 78.2893 62.7883 75.7171 62.1025Z" fill="#1179F0"/>
<path d="M70.2009 73.4509H66.1219C66.7096 73.4509 67.186 73.9273 67.186 74.515V81.2009C67.186 81.7887 66.7096 82.265 66.1219 82.265H70.2009C70.7886 82.265 71.265 81.7887 71.265 81.2009V74.515C71.265 73.9273 70.7886 73.4509 70.2009 73.4509Z" fill="#4AE048"/>
</g>
<defs>
<clipPath id="clip0">
<rect width="88.141" height="88.141" fill="white" transform="translate(0.752136)"/>
</clipPath>
</defs>
</svg>
