<svg width="78" height="78" viewBox="0 0 78 78" fill="none" xmlns="http://www.w3.org/2000/svg">
<g clip-path="url(#clip0)">
<path d="M14.5869 13.7977H63.4131V58.795H14.5869V13.7977Z" fill="#394D5C"/>
<path d="M67.8759 77.7778H10.1241C9.60548 77.7778 9.18513 77.3574 9.18513 76.8388V71.0485H68.8147V76.8388C68.8149 77.3574 68.3944 77.7778 67.8759 77.7778Z" fill="#D0E2ED"/>
<path d="M65.2153 71.0485V76.8388C65.2153 77.3574 64.795 77.7778 64.2764 77.7778H67.8757C68.3944 77.7778 68.8147 77.3574 68.8147 76.8388V71.0485H65.2153Z" fill="#AABFCF"/>
<path d="M62.3333 13.7977H67.5185V58.795H62.3333V13.7977Z" fill="#D0E2ED"/>
<path d="M67.5184 13.7977V19.1549H62.3333V13.7977H67.5184Z" fill="#AABFCF"/>
<path d="M10.4815 13.7977H15.6667V58.795H10.4815V13.7977Z" fill="#D0E2ED"/>
<path d="M15.6667 13.7977V19.1549H10.4815V13.7977H15.6667Z" fill="#AABFCF"/>
<path d="M49.226 23.2756L43.0568 20.8078C42.9458 20.7634 42.8275 20.7407 42.7081 20.7407H35.292C35.1726 20.7407 35.0541 20.7635 34.9433 20.8078L28.774 23.2756C28.6784 23.3138 28.5898 23.3675 28.5117 23.4344L20.1873 30.5696C19.8268 30.8787 19.7537 31.4083 20.0171 31.8034L24.2199 38.1077C24.5075 38.5391 25.0905 38.6557 25.5219 38.3681L27.1698 37.2695C27.7937 36.8535 28.6296 37.3008 28.6296 38.0507V50.5555C28.6296 51.2715 29.21 51.8518 29.9258 51.8518H48.074C48.79 51.8518 49.3703 51.2715 49.3703 50.5555V38.0507C49.3703 37.3008 50.2061 36.8535 50.83 37.2695L52.4779 38.3681C52.9094 38.6557 53.4923 38.5391 53.78 38.1077L57.9828 31.8034C58.2462 31.4083 58.1731 30.8787 57.8125 30.5696L49.4883 23.4344C49.4102 23.3675 49.3216 23.3138 49.226 23.2756Z" fill="#118DF0"/>
<path d="M54.5556 21.9144H23.4444C22.7961 21.9144 22.2707 21.3889 22.2707 20.7407C22.2707 20.0925 22.7961 19.567 23.4444 19.567H54.5556C55.2039 19.567 55.7293 20.0925 55.7293 20.7407C55.7293 21.3889 55.2039 21.9144 54.5556 21.9144Z" fill="#D0E2ED"/>
<path d="M70.1111 0.938967V14.2593C70.1111 14.9753 69.5307 15.5556 68.8149 15.5556H9.18513C8.46917 15.5556 7.88889 14.9751 7.88889 14.2593V0.938967C7.88889 0.420344 8.30923 0 8.82785 0H69.1721C69.6908 0 70.1111 0.420344 70.1111 0.938967Z" fill="#887575"/>
<path d="M63.987 10.3704H14.013C13.4943 10.3704 13.074 9.95006 13.074 9.43144V6.12409C13.074 5.60546 13.4943 5.18512 14.013 5.18512H63.9868C64.5054 5.18512 64.9258 5.60546 64.9258 6.12409V9.43129C64.9259 9.94991 64.5054 10.3704 63.987 10.3704Z" fill="#FAFAFA"/>
<path d="M69.1721 0H65.5728C66.0914 0 66.5117 0.420344 66.5117 0.938967V14.2593C66.5117 14.9753 65.9314 15.5556 65.2155 15.5556H68.8149C69.5308 15.5556 70.1111 14.9751 70.1111 14.2593V0.938967C70.1111 0.420344 69.6908 0 69.1721 0Z" fill="#806666"/>
<path d="M62.3333 15.5556V19.1549H15.6667V15.5556H62.3333Z" fill="#2C4252"/>
<path d="M63.987 5.18512H60.3876C60.9062 5.18512 61.3266 5.60546 61.3266 6.12409V9.43129C61.3266 9.94991 60.9062 10.3703 60.3876 10.3703H63.987C64.5056 10.3703 64.926 9.94991 64.926 9.43129V6.12409C64.926 5.60562 64.5055 5.18512 63.987 5.18512Z" fill="#F0E9E9"/>
<path d="M70.1111 71.2964C70.1111 72.0124 69.5307 72.5927 68.8149 72.5927H9.18513C8.46917 72.5927 7.88889 72.0122 7.88889 71.2964V58.3333C7.88889 57.6174 8.46932 57.0371 9.18513 57.0371H68.8149C69.5308 57.0371 70.1111 57.6174 70.1111 58.3333V71.2964Z" fill="#887575"/>
<path d="M63.987 67.4074H14.013C13.4943 67.4074 13.074 66.987 13.074 66.4684V63.1612C13.074 62.6426 13.4943 62.2222 14.013 62.2222H63.9868C64.5054 62.2222 64.9258 62.6426 64.9258 63.1612V66.4684C64.9259 66.987 64.5054 67.4074 63.987 67.4074Z" fill="#394D5C"/>
<path d="M37.8263 62.2222H40.1737V67.4074H37.8263V62.2222Z" fill="#D0E2ED"/>
<path d="M68.8149 57.0371H65.2155C65.9314 57.0371 66.5117 57.6174 66.5117 58.3333V71.2964C66.5117 72.0124 65.9313 72.5927 65.2155 72.5927H68.8149C69.5308 72.5927 70.1111 72.0122 70.1111 71.2964V58.3333C70.1111 57.6174 69.5308 57.0371 68.8149 57.0371Z" fill="#806666"/>
<path d="M63.987 62.2222H60.3875C60.9061 62.2222 61.3264 62.6426 61.3264 63.1612V66.4684C61.3264 66.987 60.9061 67.4074 60.3875 67.4074H63.987C64.5056 67.4074 64.926 66.987 64.926 66.4684V63.1612C64.926 62.6426 64.5055 62.2222 63.987 62.2222Z" fill="#2C4252"/>
<path d="M49.226 23.2756L43.0568 20.8078C42.9458 20.7634 42.8275 20.7407 42.7081 20.7407H35.292C35.1726 20.7407 35.0541 20.7635 34.9433 20.8078L28.774 23.2756C28.6784 23.3138 28.5898 23.3675 28.5117 23.4344L20.1873 30.5696C19.8268 30.8787 19.7537 31.4083 20.0171 31.8034L24.2199 38.1077C24.5075 38.5391 25.0905 38.6557 25.5219 38.3681L27.1698 37.2695C27.7937 36.8535 28.6296 37.3008 28.6296 38.0507V50.5555C28.6296 51.2715 29.21 51.8518 29.9258 51.8518H48.074C48.79 51.8518 49.3703 51.2715 49.3703 50.5555V38.0507C49.3703 37.3008 50.2061 36.8535 50.83 37.2695L52.4779 38.3681C52.9094 38.6557 53.4923 38.5391 53.78 38.1077L57.9828 31.8034C58.2462 31.4083 58.1731 30.8787 57.8125 30.5696L49.4883 23.4344C49.4102 23.3675 49.3216 23.3138 49.226 23.2756Z" fill="#118DF0"/>
<path d="M48.893 38.3681L47.2451 37.2695C46.6211 36.8535 45.7853 37.3008 45.7853 38.0507V50.5556C45.7853 51.2715 45.205 51.8518 44.489 51.8518H48.0742C48.7901 51.8518 49.3704 51.2715 49.3704 50.5556V38.5238C49.2053 38.5163 49.0404 38.4664 48.893 38.3681Z" fill="#1179F0"/>
<path d="M57.8127 30.5696L49.4882 23.4344C49.4102 23.3675 49.3214 23.3138 49.2258 23.2756L43.0566 20.8078C42.9457 20.7634 42.8274 20.7407 42.708 20.7407H39.1228C39.2422 20.7407 39.3607 20.7635 39.4715 20.8078L45.6407 23.2756C45.7363 23.3138 45.8249 23.3675 45.903 23.4344L54.2274 30.5696C54.5879 30.8787 54.661 31.4083 54.3976 31.8034L50.7746 37.238C50.7931 37.2487 50.8119 37.2576 50.83 37.2696L52.4779 38.3682C52.9094 38.6559 53.4923 38.5393 53.78 38.1078L57.9828 31.8036C58.2463 31.4083 58.1732 30.8787 57.8127 30.5696Z" fill="#1179F0"/>
<path d="M42.8889 20.7407C42.8889 22.8884 41.1477 24.6296 39 24.6296C36.8523 24.6296 35.1111 22.8884 35.1111 20.7407H42.8889Z" fill="#1179F0"/>
<path d="M35.1111 42.6552C34.4627 42.6552 33.9374 42.1297 33.9374 41.4815V32.2848H33.8147C33.1663 32.2848 32.641 31.7593 32.641 31.1111C32.641 30.4629 33.1663 29.9374 33.8147 29.9374H35.1111C35.7595 29.9374 36.2848 30.4629 36.2848 31.1111V41.4815C36.2848 42.1297 35.7595 42.6552 35.1111 42.6552Z" fill="#D0E2ED"/>
<path d="M41.5925 42.6552C39.5157 42.6552 37.8263 40.9657 37.8263 38.8889V33.7038C37.8263 31.6269 39.5158 29.9374 41.5925 29.9374C43.6692 29.9374 45.3588 31.6269 45.3588 33.7038V38.8889C45.359 40.9657 43.6693 42.6552 41.5925 42.6552ZM41.5925 32.2848C40.8102 32.2848 40.1737 32.9213 40.1737 33.7038V38.8889C40.1737 39.6714 40.8102 40.3078 41.5925 40.3078C42.375 40.3078 43.0114 39.6714 43.0114 38.8889V33.7038C43.0116 32.9213 42.375 32.2848 41.5925 32.2848Z" fill="#D0E2ED"/>
<path d="M28.6296 45.493H49.3703V47.8404H28.6296V45.493Z" fill="#D0E2ED"/>
</g>
<defs>
<clipPath id="clip0">
<rect width="77.7778" height="77.7778" fill="white" transform="translate(0.111115)"/>
</clipPath>
</defs>
</svg>
