<svg width="25" height="25" viewBox="0 0 25 25" fill="none" xmlns="http://www.w3.org/2000/svg">
<g clip-path="url(#clip0)">
<path d="M21.5315 3.84738C19.1719 1.38448 15.9072 -0.00546122 12.4963 0.000814618C5.60348 -0.00786696 0.00863043 5.57287 -5.11397e-05 12.4658C-0.00433963 15.8741 1.38544 19.1358 3.84651 21.4937C3.85368 21.5008 3.85635 21.5116 3.86346 21.5178C3.93573 21.5874 4.01429 21.6464 4.08751 21.7133C4.28833 21.8918 4.48916 22.0766 4.70071 22.2489C4.81404 22.3381 4.93187 22.4274 5.04792 22.5095C5.24786 22.6585 5.44779 22.8076 5.65662 22.9451C5.79856 23.0343 5.94494 23.1236 6.09039 23.2128C6.28316 23.3289 6.47509 23.4458 6.67414 23.552C6.84286 23.6413 7.01508 23.718 7.18646 23.7992C7.3739 23.8885 7.55867 23.9777 7.75055 24.058C7.94244 24.1384 8.13526 24.2009 8.32981 24.2705C8.52436 24.3401 8.69219 24.4044 8.87874 24.4615C9.0894 24.5248 9.30539 24.5739 9.51961 24.6266C9.6981 24.6703 9.87126 24.7203 10.0551 24.756C10.3015 24.8051 10.5514 24.8363 10.8013 24.8703C10.9558 24.8917 11.1066 24.9221 11.2628 24.9372C11.6716 24.9774 12.0839 24.9997 12.4998 24.9997C12.9158 24.9997 13.3281 24.9774 13.7369 24.9372C13.8931 24.9221 14.044 24.8917 14.1983 24.8703C14.4483 24.8363 14.6982 24.8051 14.9445 24.756C15.123 24.7203 15.3016 24.6667 15.4801 24.6266C15.6943 24.5739 15.9103 24.5248 16.1209 24.4615C16.3075 24.4044 16.4878 24.3347 16.6699 24.2705C16.852 24.2062 17.059 24.1366 17.2491 24.058C17.4392 23.9795 17.6258 23.8875 17.8132 23.7992C17.9846 23.718 18.1569 23.6412 18.3255 23.552C18.5246 23.4458 18.7165 23.3288 18.9093 23.2128C19.0548 23.1236 19.2012 23.0423 19.3431 22.9451C19.5519 22.8076 19.7519 22.6586 19.9518 22.5095C20.0678 22.4202 20.1856 22.3399 20.299 22.2489C20.5105 22.0793 20.7114 21.899 20.9122 21.7133C20.9853 21.6464 21.0639 21.5875 21.1362 21.5178C21.1433 21.5116 21.1461 21.5009 21.1532 21.4937C26.1306 16.7252 26.2999 8.82469 21.5315 3.84738ZM19.5253 20.5592C19.3629 20.702 19.1951 20.8377 19.0255 20.9689C18.9256 21.0457 18.8256 21.1215 18.7229 21.1947C18.5614 21.3117 18.3971 21.4223 18.2302 21.5286C18.1088 21.6062 17.9848 21.6812 17.8598 21.7544C17.7027 21.8437 17.5429 21.9329 17.3813 22.0221C17.2385 22.0953 17.093 22.1641 16.9467 22.2319C16.8004 22.2997 16.6388 22.372 16.4808 22.4354C16.3228 22.4988 16.155 22.5586 15.9898 22.6139C15.839 22.6657 15.6882 22.7192 15.5355 22.7647C15.357 22.8183 15.1705 22.862 14.9857 22.9067C14.8411 22.9406 14.6983 22.979 14.5519 23.0076C14.3404 23.0486 14.1244 23.0772 13.9075 23.1066C13.7844 23.1227 13.6621 23.145 13.538 23.1575C13.1952 23.1905 12.848 23.2102 12.4972 23.2102C12.1465 23.2102 11.7993 23.1906 11.4565 23.1575C11.3324 23.145 11.2102 23.1227 11.0869 23.1066C10.8701 23.0772 10.6541 23.0486 10.4425 23.0076C10.2961 22.979 10.1533 22.9406 10.0088 22.9067C9.82399 22.8621 9.6401 22.8174 9.45894 22.7647C9.30633 22.7192 9.15545 22.6657 9.00462 22.6139C8.83952 22.5568 8.67436 22.4987 8.51369 22.4354C8.35303 22.372 8.20132 22.3024 8.04777 22.2319C7.89422 22.1614 7.75589 22.0954 7.61311 22.0221C7.45156 21.9383 7.29179 21.8499 7.13469 21.7544C7.00974 21.6812 6.88564 21.6062 6.76425 21.5286C6.59737 21.4223 6.4331 21.3117 6.27155 21.1947C6.16889 21.1216 6.06894 21.0457 5.96895 20.9689C5.79934 20.8377 5.63157 20.7011 5.46913 20.5592C5.42985 20.5298 5.39413 20.4923 5.3558 20.4583C5.3957 17.422 7.34628 14.741 10.223 13.7685C11.6613 14.4528 13.3313 14.4528 14.7697 13.7685C17.6463 14.741 19.5969 17.422 19.6369 20.4583C19.5994 20.4923 19.5637 20.5262 19.5253 20.5592ZM9.38389 7.15726C10.3503 5.43851 12.527 4.82866 14.2458 5.79508C15.9645 6.76151 16.5744 8.93823 15.608 10.657C15.2873 11.2272 14.8161 11.6985 14.2458 12.0191C14.2413 12.0191 14.236 12.0191 14.2306 12.0245C13.9939 12.1562 13.7438 12.2622 13.4844 12.3405C13.438 12.3539 13.3951 12.3717 13.3461 12.3833C13.2568 12.4065 13.1631 12.4226 13.0712 12.4386C12.898 12.4689 12.7229 12.4865 12.5472 12.4913H12.4455C12.2698 12.4865 12.0946 12.4689 11.9215 12.4386C11.8323 12.4226 11.7376 12.4065 11.6466 12.3833C11.5993 12.3717 11.5574 12.3539 11.5083 12.3405C11.249 12.2622 10.9988 12.1563 10.7621 12.0245L10.7461 12.0191C9.02732 11.0527 8.41747 8.876 9.38389 7.15726ZM21.2203 18.6884C20.6475 16.0169 18.8883 13.752 16.4415 12.536C18.4416 10.3572 18.2968 6.96945 16.118 4.96929C13.9392 2.96913 10.5514 3.114 8.55125 5.29281C6.6709 7.34114 6.6709 10.4877 8.55125 12.536C6.10445 13.752 4.34523 16.0169 3.77246 18.6884C0.349827 13.8674 1.48345 7.18456 6.3045 3.76192C11.1255 0.339291 17.8084 1.47292 21.231 6.29396C22.5176 8.10627 23.2083 10.2741 23.2072 12.4967C23.2072 14.7173 22.5124 16.8823 21.2203 18.6884Z" fill="#CFD4D9"/>
</g>
<defs>
<clipPath id="clip0">
<rect width="25" height="25" fill="white"/>
</clipPath>
</defs>
</svg>
